<svg width="25" height="10" viewBox="0 0 25 10" fill="none" xmlns="http://www.w3.org/2000/svg">
<path d="M5.2125 4.4625C5.72083 4.60417 6.1125 4.85833 6.3875 5.225C6.67083 5.59167 6.8125 6.05 6.8125 6.6C6.8125 7.35833 6.55 7.95 6.025 8.375C5.50833 8.79167 4.78333 9 3.85 9H0.6625C0.4625 9 0.304167 8.94583 0.1875 8.8375C0.0791667 8.72083 0.025 8.56667 0.025 8.375V0.8125C0.025 0.620833 0.0791667 0.470833 0.1875 0.362499C0.304167 0.245833 0.4625 0.187499 0.6625 0.187499H3.7125C4.62083 0.187499 5.32917 0.391666 5.8375 0.8C6.35417 1.2 6.6125 1.7625 6.6125 2.4875C6.6125 2.95417 6.4875 3.35833 6.2375 3.7C5.99583 4.04167 5.65417 4.29583 5.2125 4.4625ZM1.2875 4H3.5125C4.74583 4 5.3625 3.53333 5.3625 2.6C5.3625 2.13333 5.20833 1.7875 4.9 1.5625C4.6 1.3375 4.1375 1.225 3.5125 1.225H1.2875V4ZM3.7125 7.9625C4.35417 7.9625 4.825 7.84583 5.125 7.6125C5.425 7.37917 5.575 7.01667 5.575 6.525C5.575 6.025 5.42083 5.65417 5.1125 5.4125C4.8125 5.1625 4.34583 5.0375 3.7125 5.0375H1.2875V7.9625H3.7125ZM14.8121 0.4625C14.9204 0.229166 15.0996 0.1125 15.3496 0.1125C15.5163 0.1125 15.6663 0.170833 15.7996 0.2875C15.9329 0.395833 15.9996 0.529166 15.9996 0.6875C15.9996 0.745833 15.9788 0.824999 15.9371 0.925L12.4121 8.65C12.3538 8.78333 12.2621 8.8875 12.1371 8.9625C12.0121 9.0375 11.8788 9.075 11.7371 9.075C11.5954 9.075 11.4579 9.0375 11.3246 8.9625C11.1996 8.8875 11.1079 8.78333 11.0496 8.65L7.53711 0.925C7.49544 0.824999 7.47461 0.745833 7.47461 0.6875C7.47461 0.520833 7.54128 0.383333 7.67461 0.275C7.81628 0.166666 7.97044 0.1125 8.13711 0.1125C8.39544 0.1125 8.57878 0.229166 8.68711 0.4625L11.7496 7.325L14.8121 0.4625ZM23.7643 0.125C23.9476 0.125 24.0934 0.187499 24.2018 0.312499C24.3184 0.429166 24.3768 0.583333 24.3768 0.774999V8.4125C24.3768 8.60417 24.3184 8.7625 24.2018 8.8875C24.0851 9.00417 23.9351 9.0625 23.7518 9.0625C23.5351 9.0625 23.3684 8.97917 23.2518 8.8125L18.3518 2.35V8.4125C18.3518 8.60417 18.2934 8.7625 18.1768 8.8875C18.0684 9.00417 17.9226 9.0625 17.7393 9.0625C17.5559 9.0625 17.4101 9.00417 17.3018 8.8875C17.1934 8.77083 17.1393 8.6125 17.1393 8.4125V0.774999C17.1393 0.583333 17.1976 0.429166 17.3143 0.312499C17.4309 0.187499 17.5809 0.125 17.7643 0.125C17.9809 0.125 18.1476 0.208333 18.2643 0.374999L23.1643 6.85V0.774999C23.1643 0.583333 23.2184 0.429166 23.3268 0.312499C23.4351 0.187499 23.5809 0.125 23.7643 0.125Z" fill="#36DA33"/>
</svg>
